# xmcd CD database file
#
# Track frame offsets:
#	150
#	67882
#	123590
#	211937
#
# Disc length: 3629 seconds
#
# Revision: 0
# Processed by: cddbd v1.5.2PL0 Copyright (c) Steve Scherf et al.
# Submitted via: CDex 1.76
#
DISCID=330e2b04
DTITLE=Christopher of the Wolves - Rhythms of Sleep
DYEAR=2015
DGENRE=New Age
TTITLE0=Christopher of the Wolves - Equilibrium
TTITLE1=Christopher of the Wolves - Dream Sequence
TTITLE2=Christopher of the Wolves - Floating
TTITLE3=Christopher of the Wolves - Silk Embrace
EXTD=YEAR: 2015
EXTT0=
EXTT1=
EXTT2=
EXTT3=
PLAYORDER=
